<?xml version="1.0" encoding="utf-8" standalone="no"?>
<!DOCTYPE svg PUBLIC "-//W3C//DTD SVG 1.1//EN"
  "http://www.w3.org/Graphics/SVG/1.1/DTD/svg11.dtd">
<svg xmlns:xlink="http://www.w3.org/1999/xlink" width="505.760937pt" height="262.19625pt" viewBox="0 0 505.760937 262.19625" xmlns="http://www.w3.org/2000/svg" version="1.1">
 <metadata>
  <rdf:RDF xmlns:dc="http://purl.org/dc/elements/1.1/" xmlns:cc="http://creativecommons.org/ns#" xmlns:rdf="http://www.w3.org/1999/02/22-rdf-syntax-ns#">
   <cc:Work>
    <dc:type rdf:resource="http://purl.org/dc/dcmitype/StillImage"/>
    <dc:date>2023-11-15T16:26:52.510548</dc:date>
    <dc:format>image/svg+xml</dc:format>
    <dc:creator>
     <cc:Agent>
      <dc:title>Matplotlib v3.7.1, https://matplotlib.org/</dc:title>
     </cc:Agent>
    </dc:creator>
   </cc:Work>
  </rdf:RDF>
 </metadata>
 <defs>
  <style type="text/css">*{stroke-linejoin: round; stroke-linecap: butt}</style>
 </defs>
 <g id="figure_1">
  <g id="patch_1">
   <path d="M 0 262.19625 
L 505.760937 262.19625 
L 505.760937 0 
L 0 0 
z
" style="fill: #ffffff"/>
  </g>
  <g id="axes_1">
   <g id="patch_2">
    <path d="M 52.160938 224.64 
L 498.560937 224.64 
L 498.560937 7.2 
L 52.160938 7.2 
z
" style="fill: #ffffff"/>
   </g>
   <g id="line2d_1">
    <path d="M 72.451847 122.16413 
L 73.265109 106.601598 
L 74.078372 115.233806 
L 74.891635 88.654612 
L 75.704898 113.578075 
L 76.518161 91.423459 
L 77.331424 109.603678 
L 78.144687 139.131724 
L 78.95795 96.035257 
L 79.771213 136.952193 
L 80.584475 96.367518 
L 81.397738 109.301218 
L 82.211001 99.957777 
L 83.024264 127.721842 
L 83.837527 123.793435 
L 84.65079 64.144036 
L 85.464053 80.811068 
L 86.277316 113.228764 
L 87.090579 72.959218 
L 87.903841 107.29908 
L 88.717104 87.550514 
L 89.530367 103.391598 
L 90.34363 101.952343 
L 91.156893 63.582926 
L 91.970156 100.047723 
L 92.783419 66.791826 
L 93.596682 74.96049 
L 94.409945 59.356282 
L 95.223207 72.256683 
L 96.03647 91.267601 
L 96.849733 49.188881 
L 97.662996 74.605512 
L 99.289522 66.601637 
L 100.102785 66.898088 
L 100.916048 60.260846 
L 101.729311 95.719381 
L 102.542573 80.675531 
L 103.355836 77.368334 
L 104.169099 62.405295 
L 104.982362 86.509212 
L 105.795625 46.148159 
L 106.608888 88.620922 
L 107.422151 52.183701 
L 108.235414 46.812241 
L 109.048677 40.001802 
L 109.86194 42.422018 
L 110.675202 77.387229 
L 111.488465 43.423546 
L 112.301728 59.515024 
L 113.114991 48.56868 
L 113.928254 85.101881 
L 114.741517 88.05816 
L 115.55478 37.871932 
L 116.368043 77.260936 
L 117.181306 67.261863 
L 117.994568 80.89973 
L 118.807831 83.585169 
L 119.621094 33.748761 
L 120.434357 75.33857 
L 121.24762 52.729049 
L 122.060883 56.810101 
L 122.874146 27.892614 
L 123.687409 61.621655 
L 124.500672 38.849588 
L 125.313934 78.720542 
L 126.127197 38.986526 
L 126.94046 43.617732 
L 127.753723 56.353871 
L 128.566986 38.376886 
L 129.380249 25.735905 
L 130.193512 50.903842 
L 131.006775 80.44616 
L 131.820038 39.527549 
L 132.6333 33.890268 
L 133.446563 65.104581 
L 134.259826 17.083636 
L 135.073089 32.919121 
L 135.886352 34.336468 
L 136.699615 77.864709 
L 137.512878 22.430392 
L 138.326141 65.739517 
L 139.139404 52.117514 
L 139.952666 23.011771 
L 140.765929 24.86051 
L 141.579192 71.050092 
L 142.392455 44.161864 
L 143.205718 45.410693 
L 144.018981 55.922842 
L 144.832244 54.339249 
L 145.645507 38.153837 
L 146.45877 41.033453 
L 147.272032 37.879161 
L 148.085295 80.457024 
L 148.898558 54.171609 
L 149.711821 31.852662 
L 150.525084 43.124951 
L 151.338347 35.76259 
L 152.15161 49.601885 
L 152.964873 44.854366 
L 153.778136 46.376617 
L 154.591398 59.043813 
L 155.404661 45.444945 
L 157.031187 91.201198 
L 157.84445 47.268699 
L 158.657713 64.381377 
L 159.470976 39.280796 
L 160.284239 89.844536 
L 161.097502 68.180374 
L 161.910764 85.437708 
L 162.724027 59.925282 
L 163.53729 93.692219 
L 164.350553 32.164656 
L 165.163816 44.662328 
L 166.790342 77.28688 
L 167.603605 88.405417 
L 168.416868 51.32804 
L 169.23013 64.241667 
L 170.043393 95.293446 
L 170.856656 86.825201 
L 171.669919 56.388217 
L 172.483182 84.270926 
L 173.296445 44.560273 
L 174.922971 95.94592 
L 175.736234 55.033503 
L 176.549496 106.513424 
L 177.362759 95.650598 
L 178.176022 61.815979 
L 178.989285 109.979408 
L 179.802548 74.884847 
L 180.615811 82.74813 
L 181.429074 57.182978 
L 182.242337 55.747376 
L 183.0556 72.166047 
L 183.868862 99.222247 
L 184.682125 89.757709 
L 185.495388 124.285223 
L 186.308651 121.712587 
L 187.935177 64.19534 
L 188.74844 80.459909 
L 189.561703 121.823631 
L 190.374966 84.376033 
L 191.188228 132.317551 
L 192.001491 97.795801 
L 192.814754 73.035003 
L 193.628017 93.395974 
L 194.44128 110.6892 
L 195.254543 105.512752 
L 196.067806 79.439633 
L 196.881069 100.758422 
L 197.694332 100.68164 
L 198.507594 107.943826 
L 199.320857 135.41238 
L 200.13412 146.045502 
L 200.947383 130.958355 
L 201.760646 144.504872 
L 202.573909 105.746866 
L 203.387172 135.166957 
L 204.200435 127.206784 
L 205.013698 102.601571 
L 205.82696 153.866986 
L 206.640223 153.151977 
L 207.453486 111.759782 
L 208.266749 118.062669 
L 209.080012 117.291535 
L 209.893275 122.816981 
L 210.706538 140.893379 
L 211.519801 108.831223 
L 212.333064 157.510373 
L 213.146326 155.483912 
L 214.772852 113.278583 
L 215.586115 119.054409 
L 216.399378 147.832525 
L 217.212641 131.676644 
L 218.025904 112.118442 
L 218.839167 133.816926 
L 219.65243 171.111532 
L 220.465692 142.050628 
L 221.278955 161.008807 
L 222.092218 163.086042 
L 222.905481 121.241189 
L 223.718744 145.609984 
L 224.532007 127.821818 
L 225.34527 136.254646 
L 226.158533 129.363975 
L 226.971796 130.709151 
L 227.785058 172.121441 
L 228.598321 142.116232 
L 229.411584 141.488202 
L 230.224847 137.370629 
L 231.03811 139.222071 
L 231.851373 155.337497 
L 232.664636 150.561988 
L 233.477899 168.388627 
L 234.291162 198.301231 
L 235.104424 192.640921 
L 235.917687 165.467921 
L 236.73095 159.849773 
L 237.544213 157.519687 
L 238.357476 160.257969 
L 239.170739 163.805654 
L 239.984002 144.062925 
L 240.797265 194.992305 
L 241.610528 178.768482 
L 242.42379 196.089604 
L 243.237053 168.096086 
L 244.050316 155.7876 
L 244.863579 189.823923 
L 245.676842 201.674876 
L 246.490105 160.02502 
L 247.303368 210.390383 
L 248.116631 182.888708 
L 249.743156 203.185991 
L 250.556419 176.850906 
L 251.369682 159.54494 
L 252.182945 149.868787 
L 252.996208 167.978195 
L 253.809471 161.612547 
L 254.622734 213.712099 
L 255.435997 195.229849 
L 256.24926 158.583581 
L 257.062522 198.644211 
L 257.875785 193.237447 
L 258.689048 193.136548 
L 259.502311 213.365811 
L 260.315574 207.850799 
L 261.128837 163.085935 
L 261.9421 198.894709 
L 262.755363 164.518784 
L 263.568626 214.756364 
L 264.381888 171.356537 
L 265.195151 149.534821 
L 266.008414 169.726697 
L 266.821677 202.300731 
L 267.63494 197.289302 
L 268.448203 187.388237 
L 269.261466 172.789893 
L 270.074729 155.873186 
L 270.887992 174.286365 
L 271.701254 182.296802 
L 272.514517 187.810579 
L 273.32778 181.621342 
L 274.141043 182.452771 
L 274.954306 150.978752 
L 275.767569 147.629388 
L 276.580832 166.889862 
L 277.394095 195.336346 
L 278.207358 151.175249 
L 279.020621 181.823832 
L 279.833883 164.216673 
L 280.647146 170.062391 
L 281.460409 153.59447 
L 282.273672 173.513885 
L 283.086935 168.954784 
L 283.900198 156.160022 
L 284.713461 167.772277 
L 285.526724 167.899355 
L 286.339987 200.567077 
L 287.153249 173.74342 
L 287.966512 156.273104 
L 288.779775 199.564011 
L 289.593038 157.870607 
L 290.406301 145.549984 
L 291.219564 164.665037 
L 292.032827 143.368012 
L 292.84609 137.380802 
L 293.659353 155.238883 
L 294.472615 148.641504 
L 295.285878 190.652251 
L 296.099141 188.852189 
L 296.912404 137.633291 
L 297.725667 189.239829 
L 298.53893 161.909717 
L 299.352193 162.514985 
L 300.165456 165.449823 
L 300.978719 183.428224 
L 301.791981 155.514307 
L 302.605244 146.713905 
L 303.418507 134.944026 
L 304.23177 157.35654 
L 305.045033 157.839008 
L 305.858296 170.000028 
L 306.671559 175.022786 
L 307.484822 175.55307 
L 308.298085 124.662974 
L 309.111347 132.923234 
L 309.92461 136.842042 
L 310.737873 110.454317 
L 311.551136 118.50633 
L 312.364399 164.078827 
L 313.177662 131.236239 
L 313.990925 106.348638 
L 314.804188 167.879995 
L 315.617451 127.866286 
L 316.430713 132.976653 
L 317.243976 160.57405 
L 318.057239 124.472068 
L 318.870502 115.149448 
L 319.683765 145.749592 
L 320.497028 145.75048 
L 321.310291 154.520335 
L 322.123554 117.483574 
L 322.936817 91.716075 
L 323.750079 145.601012 
L 324.563342 106.405359 
L 325.376605 148.383036 
L 326.189868 150.262714 
L 327.003131 132.312707 
L 327.816394 98.277766 
L 328.629657 92.15392 
L 329.44292 120.557159 
L 330.256183 86.125071 
L 331.069445 81.436944 
L 331.882708 109.205123 
L 332.695971 99.495994 
L 333.509234 73.966364 
L 334.322497 71.873695 
L 335.13576 100.698809 
L 335.949023 125.102716 
L 336.762286 98.134266 
L 337.575549 81.558845 
L 338.388811 123.612502 
L 339.202074 85.756446 
L 340.015337 83.165457 
L 340.8286 121.855012 
L 341.641863 119.790224 
L 342.455126 96.339595 
L 343.268389 84.547071 
L 344.081652 119.025178 
L 344.894915 119.025392 
L 345.708177 74.64422 
L 346.52144 70.79433 
L 347.334703 59.946757 
L 348.147966 113.458842 
L 348.961229 62.30569 
L 349.774492 79.835395 
L 350.587755 94.268531 
L 351.401018 90.71043 
L 352.214281 98.924076 
L 353.027543 52.278091 
L 353.840806 83.485612 
L 354.654069 80.788841 
L 355.467332 58.458127 
L 356.280595 56.670296 
L 357.093858 95.370043 
L 357.907121 78.889013 
L 358.720384 78.674408 
L 359.533647 70.435912 
L 360.346909 67.628351 
L 361.160172 33.934735 
L 361.973435 50.930035 
L 362.786698 52.775489 
L 363.599961 73.969163 
L 364.413224 83.483058 
L 365.226487 36.361035 
L 366.03975 41.413272 
L 366.853013 61.572598 
L 367.666275 78.741445 
L 368.479538 67.440613 
L 369.292801 28.088322 
L 370.106064 71.048005 
L 370.919327 82.419263 
L 371.73259 75.69995 
L 372.545853 81.348308 
L 373.359116 80.103826 
L 374.172379 51.673964 
L 374.985641 29.380395 
L 375.798904 29.958186 
L 376.612167 70.017175 
L 377.42543 42.87203 
L 378.238693 50.229242 
L 379.051956 25.618069 
L 379.865219 79.718874 
L 380.678482 40.798804 
L 381.491745 78.747695 
L 382.305007 56.027294 
L 383.11827 69.050917 
L 383.931533 74.520931 
L 384.744796 64.397252 
L 385.558059 76.787039 
L 386.371322 71.165844 
L 387.184585 82.931069 
L 387.997848 80.006897 
L 388.811111 70.587652 
L 389.624373 53.398954 
L 390.437636 27.890831 
L 391.250899 68.663078 
L 392.064162 24.91523 
L 392.877425 35.291128 
L 393.690688 61.754242 
L 394.503951 43.097087 
L 395.317214 58.600811 
L 396.130477 69.491013 
L 396.943739 34.729896 
L 397.757002 53.431545 
L 398.570265 61.073761 
L 399.383528 31.012426 
L 400.196791 81.493988 
L 401.010054 83.019604 
L 401.823317 49.921858 
L 402.63658 34.430242 
L 403.449843 27.758906 
L 404.263105 48.999247 
L 405.076368 44.47802 
L 405.889631 69.361187 
L 406.702894 78.86428 
L 407.516157 74.123728 
L 408.32942 78.670959 
L 409.142683 41.550405 
L 409.955946 38.527378 
L 410.769209 38.877383 
L 411.582471 30.781015 
L 412.395734 58.411076 
L 413.208997 68.779746 
L 414.02226 26.5435 
L 414.835523 54.308489 
L 415.648786 48.236589 
L 416.462049 77.773477 
L 417.275312 77.022161 
L 418.088575 85.880595 
L 418.901837 36.152457 
L 419.7151 39.274075 
L 420.528363 51.854736 
L 421.341626 50.065678 
L 422.154889 40.392439 
L 422.968152 71.98532 
L 423.781415 67.487546 
L 424.594678 45.380191 
L 425.407941 91.57487 
L 426.221203 61.519503 
L 427.034466 95.838429 
L 427.847729 84.206024 
L 428.660992 103.568062 
L 429.474255 46.979141 
L 430.287518 108.273691 
L 431.100781 66.687801 
L 431.914044 49.450779 
L 432.727307 70.198441 
L 433.540569 100.540252 
L 434.353832 52.705726 
L 435.167095 83.460209 
L 435.980358 100.469886 
L 436.793621 63.46601 
L 437.606884 79.529025 
L 438.420147 76.689384 
L 439.23341 106.070726 
L 440.046673 107.315072 
L 440.859935 98.706906 
L 441.673198 91.937283 
L 442.486461 73.776986 
L 443.299724 126.604809 
L 444.112987 97.060398 
L 444.92625 77.075881 
L 445.739513 100.398491 
L 446.552776 98.653142 
L 447.366039 73.673847 
L 448.992564 134.116581 
L 449.805827 80.979938 
L 450.61909 106.222671 
L 451.432353 121.627174 
L 452.245616 115.916123 
L 453.058879 92.571584 
L 453.872142 114.520516 
L 454.685405 93.847001 
L 455.498668 103.73027 
L 456.31193 129.109734 
L 457.125193 132.302519 
L 457.938456 113.360108 
L 458.751719 119.458927 
L 459.564982 152.630001 
L 460.378245 142.840922 
L 461.191508 152.786823 
L 462.004771 130.890833 
L 462.818034 104.809037 
L 463.631296 159.978082 
L 465.257822 117.353142 
L 466.071085 152.452984 
L 466.884348 139.217882 
L 467.697611 107.00062 
L 468.510874 149.660881 
L 469.324137 157.719152 
L 470.1374 137.658335 
L 470.950662 121.433081 
L 471.763925 161.897663 
L 472.577188 142.346766 
L 473.390451 133.919709 
L 474.203714 164.296605 
L 475.016977 159.364215 
L 475.83024 147.206391 
L 476.643503 152.193062 
L 477.456766 173.817666 
L 478.270028 163.18093 
L 478.270028 163.18093 
" clip-path="url(#p70409b9d4e)" style="fill: none; stroke: #1f77b4; stroke-width: 1.5; stroke-linecap: square"/>
   </g>
   <g id="line2d_2">
    <path d="M 82.211001 102.859504 
L 83.837527 99.378967 
L 85.464053 96.487949 
L 87.090579 93.906147 
L 90.34363 85.781111 
L 91.970156 83.793571 
L 93.596682 81.008141 
L 95.223207 79.447222 
L 96.849733 77.076392 
L 98.476259 73.825898 
L 100.102785 69.485167 
L 101.729311 67.696187 
L 103.355836 65.345953 
L 104.982362 66.899684 
L 106.608888 64.964027 
L 108.235414 65.938715 
L 109.86194 65.148338 
L 111.488465 65.184685 
L 113.114991 61.516997 
L 114.741517 59.944902 
L 116.368043 59.34689 
L 117.994568 57.713569 
L 119.621094 56.805519 
L 121.24762 57.267149 
L 122.874146 56.086319 
L 124.500672 54.027025 
L 126.127197 51.680045 
L 129.380249 48.045822 
L 131.006775 45.59722 
L 132.6333 45.824133 
L 134.259826 46.296903 
L 135.886352 45.293821 
L 137.512878 45.146156 
L 139.139404 46.742071 
L 140.765929 46.675585 
L 142.392455 45.291216 
L 144.018981 44.980661 
L 145.645507 47.160101 
L 147.272032 49.063714 
L 148.898558 50.00292 
L 152.15161 54.471062 
L 153.778136 57.032859 
L 155.404661 55.695455 
L 157.031187 58.105295 
L 158.657713 58.961186 
L 160.284239 61.901619 
L 161.910764 64.474654 
L 163.53729 65.849652 
L 165.163816 68.298542 
L 166.790342 70.19901 
L 168.416868 70.958877 
L 170.043393 74.20696 
L 173.296445 72.785225 
L 174.922971 75.310148 
L 176.549496 80.877712 
L 178.176022 80.497777 
L 179.802548 83.96633 
L 181.429074 85.349327 
L 183.0556 86.556194 
L 184.682125 90.10932 
L 186.308651 91.468238 
L 187.935177 91.43928 
L 189.561703 94.301712 
L 191.188228 99.076548 
L 192.814754 104.569403 
L 194.44128 108.208821 
L 196.067806 109.905846 
L 197.694332 111.95387 
L 199.320857 115.581828 
L 200.947383 117.882256 
L 202.573909 119.331386 
L 204.200435 124.2649 
L 205.82696 124.910142 
L 207.453486 128.882586 
L 209.080012 130.374982 
L 210.706538 131.643154 
L 212.333064 133.588418 
L 213.959589 134.625912 
L 215.586115 135.996637 
L 217.212641 134.118803 
L 218.839167 137.495412 
L 220.465692 139.045425 
L 222.092218 140.838823 
L 223.718744 141.077077 
L 225.34527 146.812222 
L 226.971796 149.149453 
L 228.598321 152.108755 
L 230.224847 152.22636 
L 231.851373 155.054414 
L 233.477899 158.248753 
L 235.104424 161.135942 
L 238.357476 168.597133 
L 239.984002 173.12035 
L 241.610528 175.512475 
L 243.237053 175.990375 
L 244.863579 176.335767 
L 246.490105 176.16395 
L 248.116631 179.144438 
L 249.743156 182.441988 
L 251.369682 183.717248 
L 252.996208 183.259464 
L 254.622734 185.748633 
L 256.24926 182.859142 
L 257.875785 184.026127 
L 259.502311 183.377749 
L 261.128837 181.382655 
L 262.755363 183.810401 
L 264.381888 185.189736 
L 266.008414 180.776384 
L 267.63494 180.97632 
L 269.261466 178.841324 
L 270.887992 175.363822 
L 272.514517 173.96893 
L 274.141043 171.802517 
L 275.767569 172.393728 
L 277.394095 172.48505 
L 279.020621 171.331433 
L 280.647146 170.321734 
L 282.273672 168.379729 
L 283.900198 165.30724 
L 285.526724 165.541729 
L 287.153249 166.020378 
L 288.779775 166.205896 
L 290.406301 165.482868 
L 292.032827 166.094295 
L 293.659353 163.661866 
L 295.285878 163.312396 
L 296.912404 162.374651 
L 298.53893 161.182632 
L 301.791981 154.425683 
L 303.418507 155.008333 
L 305.045033 153.822263 
L 306.671559 149.075803 
L 308.298085 147.402723 
L 309.92461 144.861696 
L 311.551136 142.917407 
L 313.177662 139.196265 
L 314.804188 137.584497 
L 316.430713 136.416765 
L 318.057239 131.61735 
L 319.683765 129.822345 
L 322.936817 123.677609 
L 324.563342 120.007817 
L 326.189868 117.210026 
L 327.816394 112.655723 
L 329.44292 111.44562 
L 331.069445 107.986436 
L 332.695971 105.751472 
L 334.322497 104.401679 
L 335.949023 101.956928 
L 337.575549 95.883554 
L 339.202074 95.296868 
L 340.8286 93.993736 
L 342.455126 93.953433 
L 344.081652 92.445487 
L 345.708177 91.112466 
L 347.334703 88.2646 
L 348.961229 86.360283 
L 350.587755 85.125977 
L 352.214281 78.854759 
L 353.840806 76.689078 
L 355.467332 71.960819 
L 357.093858 70.262712 
L 358.720384 69.17377 
L 360.346909 67.45358 
L 361.973435 66.37919 
L 363.599961 66.789189 
L 365.226487 63.460385 
L 366.853013 62.854263 
L 368.479538 59.607951 
L 370.106064 57.857016 
L 371.73259 58.576353 
L 373.359116 59.43126 
L 374.985641 58.689899 
L 376.612167 61.497042 
L 378.238693 62.401999 
L 379.865219 63.540305 
L 381.491745 61.263771 
L 383.11827 57.390095 
L 384.744796 56.313037 
L 386.371322 59.063166 
L 387.997848 58.074056 
L 389.624373 58.723611 
L 391.250899 60.483447 
L 392.877425 58.466532 
L 394.503951 55.793984 
L 396.130477 54.700181 
L 397.757002 54.655825 
L 399.383528 53.440897 
L 404.263105 53.041163 
L 405.889631 53.07505 
L 407.516157 55.098039 
L 409.142683 55.399149 
L 410.769209 54.544045 
L 412.395734 52.844711 
L 414.02226 55.93606 
L 415.648786 57.675171 
L 417.275312 58.04047 
L 418.901837 59.439646 
L 420.528363 62.446648 
L 423.781415 66.04777 
L 425.407941 68.260328 
L 427.034466 69.777361 
L 428.660992 69.509987 
L 430.287518 75.028358 
L 433.540569 82.09747 
L 435.167095 84.548212 
L 436.793621 86.386502 
L 438.420147 86.334775 
L 440.046673 88.916748 
L 441.673198 91.032282 
L 443.299724 94.585822 
L 444.92625 96.790683 
L 446.552776 98.747079 
L 448.179302 102.853783 
L 451.432353 110.011167 
L 454.685405 115.767124 
L 456.31193 119.460395 
L 459.564982 125.143496 
L 462.818034 130.687093 
L 464.444559 134.332062 
L 466.071085 138.691795 
L 467.697611 141.275734 
L 467.697611 141.275734 
" clip-path="url(#p70409b9d4e)" style="fill: none; stroke: #ff0000; stroke-width: 1.5; stroke-linecap: square"/>
   </g>
   <g id="matplotlib.axis_1">
    <g id="xtick_1">
     <g id="line2d_3">
      <defs>
       <path id="m34bdae19e0" d="M 0 0 
L 0 3.5 
" style="stroke: #000000; stroke-width: 0.8"/>
      </defs>
      <g>
       <use xlink:href="#m34bdae19e0" x="72.451847" y="224.64" style="stroke: #000000; stroke-width: 0.8"/>
      </g>
     </g>
     <g id="text_1">
      <!-- 0 -->
      <g transform="translate(69.270597 239.238437) scale(0.1 -0.1)">
       <defs>
        <path id="DejaVuSans-30" d="M 2034 4250 
Q 1547 4250 1301 3770 
Q 1056 3291 1056 2328 
Q 1056 1369 1301 889 
Q 1547 409 2034 409 
Q 2525 409 2770 889 
Q 3016 1369 3016 2328 
Q 3016 3291 2770 3770 
Q 2525 4250 2034 4250 
z
M 2034 4750 
Q 2819 4750 3233 4129 
Q 3647 3509 3647 2328 
Q 3647 1150 3233 529 
Q 2819 -91 2034 -91 
Q 1250 -91 836 529 
Q 422 1150 422 2328 
Q 422 3509 836 4129 
Q 1250 4750 2034 4750 
z
" transform="scale(0.015625)"/>
       </defs>
       <use xlink:href="#DejaVuSans-30"/>
      </g>
     </g>
    </g>
    <g id="xtick_2">
     <g id="line2d_4">
      <g>
       <use xlink:href="#m34bdae19e0" x="153.615483" y="224.64" style="stroke: #000000; stroke-width: 0.8"/>
      </g>
     </g>
     <g id="text_2">
      <!-- 2 -->
      <g transform="translate(150.434233 239.238437) scale(0.1 -0.1)">
       <defs>
        <path id="DejaVuSans-32" d="M 1228 531 
L 3431 531 
L 3431 0 
L 469 0 
L 469 531 
Q 828 903 1448 1529 
Q 2069 2156 2228 2338 
Q 2531 2678 2651 2914 
Q 2772 3150 2772 3378 
Q 2772 3750 2511 3984 
Q 2250 4219 1831 4219 
Q 1534 4219 1204 4116 
Q 875 4013 500 3803 
L 500 4441 
Q 881 4594 1212 4672 
Q 1544 4750 1819 4750 
Q 2544 4750 2975 4387 
Q 3406 4025 3406 3419 
Q 3406 3131 3298 2873 
Q 3191 2616 2906 2266 
Q 2828 2175 2409 1742 
Q 1991 1309 1228 531 
z
" transform="scale(0.015625)"/>
       </defs>
       <use xlink:href="#DejaVuSans-32"/>
      </g>
     </g>
    </g>
    <g id="xtick_3">
     <g id="line2d_5">
      <g>
       <use xlink:href="#m34bdae19e0" x="234.779119" y="224.64" style="stroke: #000000; stroke-width: 0.8"/>
      </g>
     </g>
     <g id="text_3">
      <!-- 4 -->
      <g transform="translate(231.597869 239.238437) scale(0.1 -0.1)">
       <defs>
        <path id="DejaVuSans-34" d="M 2419 4116 
L 825 1625 
L 2419 1625 
L 2419 4116 
z
M 2253 4666 
L 3047 4666 
L 3047 1625 
L 3713 1625 
L 3713 1100 
L 3047 1100 
L 3047 0 
L 2419 0 
L 2419 1100 
L 313 1100 
L 313 1709 
L 2253 4666 
z
" transform="scale(0.015625)"/>
       </defs>
       <use xlink:href="#DejaVuSans-34"/>
      </g>
     </g>
    </g>
    <g id="xtick_4">
     <g id="line2d_6">
      <g>
       <use xlink:href="#m34bdae19e0" x="315.942756" y="224.64" style="stroke: #000000; stroke-width: 0.8"/>
      </g>
     </g>
     <g id="text_4">
      <!-- 6 -->
      <g transform="translate(312.761506 239.238437) scale(0.1 -0.1)">
       <defs>
        <path id="DejaVuSans-36" d="M 2113 2584 
Q 1688 2584 1439 2293 
Q 1191 2003 1191 1497 
Q 1191 994 1439 701 
Q 1688 409 2113 409 
Q 2538 409 2786 701 
Q 3034 994 3034 1497 
Q 3034 2003 2786 2293 
Q 2538 2584 2113 2584 
z
M 3366 4563 
L 3366 3988 
Q 3128 4100 2886 4159 
Q 2644 4219 2406 4219 
Q 1781 4219 1451 3797 
Q 1122 3375 1075 2522 
Q 1259 2794 1537 2939 
Q 1816 3084 2150 3084 
Q 2853 3084 3261 2657 
Q 3669 2231 3669 1497 
Q 3669 778 3244 343 
Q 2819 -91 2113 -91 
Q 1303 -91 875 529 
Q 447 1150 447 2328 
Q 447 3434 972 4092 
Q 1497 4750 2381 4750 
Q 2619 4750 2861 4703 
Q 3103 4656 3366 4563 
z
" transform="scale(0.015625)"/>
       </defs>
       <use xlink:href="#DejaVuSans-36"/>
      </g>
     </g>
    </g>
    <g id="xtick_5">
     <g id="line2d_7">
      <g>
       <use xlink:href="#m34bdae19e0" x="397.106392" y="224.64" style="stroke: #000000; stroke-width: 0.8"/>
      </g>
     </g>
     <g id="text_5">
      <!-- 8 -->
      <g transform="translate(393.925142 239.238437) scale(0.1 -0.1)">
       <defs>
        <path id="DejaVuSans-38" d="M 2034 2216 
Q 1584 2216 1326 1975 
Q 1069 1734 1069 1313 
Q 1069 891 1326 650 
Q 1584 409 2034 409 
Q 2484 409 2743 651 
Q 3003 894 3003 1313 
Q 3003 1734 2745 1975 
Q 2488 2216 2034 2216 
z
M 1403 2484 
Q 997 2584 770 2862 
Q 544 3141 544 3541 
Q 544 4100 942 4425 
Q 1341 4750 2034 4750 
Q 2731 4750 3128 4425 
Q 3525 4100 3525 3541 
Q 3525 3141 3298 2862 
Q 3072 2584 2669 2484 
Q 3125 2378 3379 2068 
Q 3634 1759 3634 1313 
Q 3634 634 3220 271 
Q 2806 -91 2034 -91 
Q 1263 -91 848 271 
Q 434 634 434 1313 
Q 434 1759 690 2068 
Q 947 2378 1403 2484 
z
M 1172 3481 
Q 1172 3119 1398 2916 
Q 1625 2713 2034 2713 
Q 2441 2713 2670 2916 
Q 2900 3119 2900 3481 
Q 2900 3844 2670 4047 
Q 2441 4250 2034 4250 
Q 1625 4250 1398 4047 
Q 1172 3844 1172 3481 
z
" transform="scale(0.015625)"/>
       </defs>
       <use xlink:href="#DejaVuSans-38"/>
      </g>
     </g>
    </g>
    <g id="xtick_6">
     <g id="line2d_8">
      <g>
       <use xlink:href="#m34bdae19e0" x="478.270028" y="224.64" style="stroke: #000000; stroke-width: 0.8"/>
      </g>
     </g>
     <g id="text_6">
      <!-- 10 -->
      <g transform="translate(471.907528 239.238437) scale(0.1 -0.1)">
       <defs>
        <path id="DejaVuSans-31" d="M 794 531 
L 1825 531 
L 1825 4091 
L 703 3866 
L 703 4441 
L 1819 4666 
L 2450 4666 
L 2450 531 
L 3481 531 
L 3481 0 
L 794 0 
L 794 531 
z
" transform="scale(0.015625)"/>
       </defs>
       <use xlink:href="#DejaVuSans-31"/>
       <use xlink:href="#DejaVuSans-30" x="63.623047"/>
      </g>
     </g>
    </g>
    <g id="text_7">
     <!-- Time -->
     <g transform="translate(263.127344 252.916562) scale(0.1 -0.1)">
      <defs>
       <path id="DejaVuSans-54" d="M -19 4666 
L 3928 4666 
L 3928 4134 
L 2272 4134 
L 2272 0 
L 1638 0 
L 1638 4134 
L -19 4134 
L -19 4666 
z
" transform="scale(0.015625)"/>
       <path id="DejaVuSans-69" d="M 603 3500 
L 1178 3500 
L 1178 0 
L 603 0 
L 603 3500 
z
M 603 4863 
L 1178 4863 
L 1178 4134 
L 603 4134 
L 603 4863 
z
" transform="scale(0.015625)"/>
       <path id="DejaVuSans-6d" d="M 3328 2828 
Q 3544 3216 3844 3400 
Q 4144 3584 4550 3584 
Q 5097 3584 5394 3201 
Q 5691 2819 5691 2113 
L 5691 0 
L 5113 0 
L 5113 2094 
Q 5113 2597 4934 2840 
Q 4756 3084 4391 3084 
Q 3944 3084 3684 2787 
Q 3425 2491 3425 1978 
L 3425 0 
L 2847 0 
L 2847 2094 
Q 2847 2600 2669 2842 
Q 2491 3084 2119 3084 
Q 1678 3084 1418 2786 
Q 1159 2488 1159 1978 
L 1159 0 
L 581 0 
L 581 3500 
L 1159 3500 
L 1159 2956 
Q 1356 3278 1631 3431 
Q 1906 3584 2284 3584 
Q 2666 3584 2933 3390 
Q 3200 3197 3328 2828 
z
" transform="scale(0.015625)"/>
       <path id="DejaVuSans-65" d="M 3597 1894 
L 3597 1613 
L 953 1613 
Q 991 1019 1311 708 
Q 1631 397 2203 397 
Q 2534 397 2845 478 
Q 3156 559 3463 722 
L 3463 178 
Q 3153 47 2828 -22 
Q 2503 -91 2169 -91 
Q 1331 -91 842 396 
Q 353 884 353 1716 
Q 353 2575 817 3079 
Q 1281 3584 2069 3584 
Q 2775 3584 3186 3129 
Q 3597 2675 3597 1894 
z
M 3022 2063 
Q 3016 2534 2758 2815 
Q 2500 3097 2075 3097 
Q 1594 3097 1305 2825 
Q 1016 2553 972 2059 
L 3022 2063 
z
" transform="scale(0.015625)"/>
      </defs>
      <use xlink:href="#DejaVuSans-54"/>
      <use xlink:href="#DejaVuSans-69" x="57.958984"/>
      <use xlink:href="#DejaVuSans-6d" x="85.742188"/>
      <use xlink:href="#DejaVuSans-65" x="183.154297"/>
     </g>
    </g>
   </g>
   <g id="matplotlib.axis_2">
    <g id="ytick_1">
     <g id="line2d_9">
      <defs>
       <path id="m8ee8fc6f0c" d="M 0 0 
L -3.5 0 
" style="stroke: #000000; stroke-width: 0.8"/>
      </defs>
      <g>
       <use xlink:href="#m8ee8fc6f0c" x="52.160938" y="216.02945" style="stroke: #000000; stroke-width: 0.8"/>
      </g>
     </g>
     <g id="text_8">
      <!-- −1.0 -->
      <g transform="translate(20.878125 219.828668) scale(0.1 -0.1)">
       <defs>
        <path id="DejaVuSans-2212" d="M 678 2272 
L 4684 2272 
L 4684 1741 
L 678 1741 
L 678 2272 
z
" transform="scale(0.015625)"/>
        <path id="DejaVuSans-2e" d="M 684 794 
L 1344 794 
L 1344 0 
L 684 0 
L 684 794 
z
" transform="scale(0.015625)"/>
       </defs>
       <use xlink:href="#DejaVuSans-2212"/>
       <use xlink:href="#DejaVuSans-31" x="83.789062"/>
       <use xlink:href="#DejaVuSans-2e" x="147.412109"/>
       <use xlink:href="#DejaVuSans-30" x="179.199219"/>
      </g>
     </g>
    </g>
    <g id="ytick_2">
     <g id="line2d_10">
      <g>
       <use xlink:href="#m8ee8fc6f0c" x="52.160938" y="182.732302" style="stroke: #000000; stroke-width: 0.8"/>
      </g>
     </g>
     <g id="text_9">
      <!-- −0.5 -->
      <g transform="translate(20.878125 186.531521) scale(0.1 -0.1)">
       <defs>
        <path id="DejaVuSans-35" d="M 691 4666 
L 3169 4666 
L 3169 4134 
L 1269 4134 
L 1269 2991 
Q 1406 3038 1543 3061 
Q 1681 3084 1819 3084 
Q 2600 3084 3056 2656 
Q 3513 2228 3513 1497 
Q 3513 744 3044 326 
Q 2575 -91 1722 -91 
Q 1428 -91 1123 -41 
Q 819 9 494 109 
L 494 744 
Q 775 591 1075 516 
Q 1375 441 1709 441 
Q 2250 441 2565 725 
Q 2881 1009 2881 1497 
Q 2881 1984 2565 2268 
Q 2250 2553 1709 2553 
Q 1456 2553 1204 2497 
Q 953 2441 691 2322 
L 691 4666 
z
" transform="scale(0.015625)"/>
       </defs>
       <use xlink:href="#DejaVuSans-2212"/>
       <use xlink:href="#DejaVuSans-30" x="83.789062"/>
       <use xlink:href="#DejaVuSans-2e" x="147.412109"/>
       <use xlink:href="#DejaVuSans-35" x="179.199219"/>
      </g>
     </g>
    </g>
    <g id="ytick_3">
     <g id="line2d_11">
      <g>
       <use xlink:href="#m8ee8fc6f0c" x="52.160938" y="149.435154" style="stroke: #000000; stroke-width: 0.8"/>
      </g>
     </g>
     <g id="text_10">
      <!-- 0.0 -->
      <g transform="translate(29.257812 153.234373) scale(0.1 -0.1)">
       <use xlink:href="#DejaVuSans-30"/>
       <use xlink:href="#DejaVuSans-2e" x="63.623047"/>
       <use xlink:href="#DejaVuSans-30" x="95.410156"/>
      </g>
     </g>
    </g>
    <g id="ytick_4">
     <g id="line2d_12">
      <g>
       <use xlink:href="#m8ee8fc6f0c" x="52.160938" y="116.138007" style="stroke: #000000; stroke-width: 0.8"/>
      </g>
     </g>
     <g id="text_11">
      <!-- 0.5 -->
      <g transform="translate(29.257812 119.937225) scale(0.1 -0.1)">
       <use xlink:href="#DejaVuSans-30"/>
       <use xlink:href="#DejaVuSans-2e" x="63.623047"/>
       <use xlink:href="#DejaVuSans-35" x="95.410156"/>
      </g>
     </g>
    </g>
    <g id="ytick_5">
     <g id="line2d_13">
      <g>
       <use xlink:href="#m8ee8fc6f0c" x="52.160938" y="82.840859" style="stroke: #000000; stroke-width: 0.8"/>
      </g>
     </g>
     <g id="text_12">
      <!-- 1.0 -->
      <g transform="translate(29.257812 86.640078) scale(0.1 -0.1)">
       <use xlink:href="#DejaVuSans-31"/>
       <use xlink:href="#DejaVuSans-2e" x="63.623047"/>
       <use xlink:href="#DejaVuSans-30" x="95.410156"/>
      </g>
     </g>
    </g>
    <g id="ytick_6">
     <g id="line2d_14">
      <g>
       <use xlink:href="#m8ee8fc6f0c" x="52.160938" y="49.543711" style="stroke: #000000; stroke-width: 0.8"/>
      </g>
     </g>
     <g id="text_13">
      <!-- 1.5 -->
      <g transform="translate(29.257812 53.34293) scale(0.1 -0.1)">
       <use xlink:href="#DejaVuSans-31"/>
       <use xlink:href="#DejaVuSans-2e" x="63.623047"/>
       <use xlink:href="#DejaVuSans-35" x="95.410156"/>
      </g>
     </g>
    </g>
    <g id="ytick_7">
     <g id="line2d_15">
      <g>
       <use xlink:href="#m8ee8fc6f0c" x="52.160938" y="16.246564" style="stroke: #000000; stroke-width: 0.8"/>
      </g>
     </g>
     <g id="text_14">
      <!-- 2.0 -->
      <g transform="translate(29.257812 20.045782) scale(0.1 -0.1)">
       <use xlink:href="#DejaVuSans-32"/>
       <use xlink:href="#DejaVuSans-2e" x="63.623047"/>
       <use xlink:href="#DejaVuSans-30" x="95.410156"/>
      </g>
     </g>
    </g>
    <g id="text_15">
     <!-- Value -->
     <g transform="translate(14.798438 129.65125) rotate(-90) scale(0.1 -0.1)">
      <defs>
       <path id="DejaVuSans-56" d="M 1831 0 
L 50 4666 
L 709 4666 
L 2188 738 
L 3669 4666 
L 4325 4666 
L 2547 0 
L 1831 0 
z
" transform="scale(0.015625)"/>
       <path id="DejaVuSans-61" d="M 2194 1759 
Q 1497 1759 1228 1600 
Q 959 1441 959 1056 
Q 959 750 1161 570 
Q 1363 391 1709 391 
Q 2188 391 2477 730 
Q 2766 1069 2766 1631 
L 2766 1759 
L 2194 1759 
z
M 3341 1997 
L 3341 0 
L 2766 0 
L 2766 531 
Q 2569 213 2275 61 
Q 1981 -91 1556 -91 
Q 1019 -91 701 211 
Q 384 513 384 1019 
Q 384 1609 779 1909 
Q 1175 2209 1959 2209 
L 2766 2209 
L 2766 2266 
Q 2766 2663 2505 2880 
Q 2244 3097 1772 3097 
Q 1472 3097 1187 3025 
Q 903 2953 641 2809 
L 641 3341 
Q 956 3463 1253 3523 
Q 1550 3584 1831 3584 
Q 2591 3584 2966 3190 
Q 3341 2797 3341 1997 
z
" transform="scale(0.015625)"/>
       <path id="DejaVuSans-6c" d="M 603 4863 
L 1178 4863 
L 1178 0 
L 603 0 
L 603 4863 
z
" transform="scale(0.015625)"/>
       <path id="DejaVuSans-75" d="M 544 1381 
L 544 3500 
L 1119 3500 
L 1119 1403 
Q 1119 906 1312 657 
Q 1506 409 1894 409 
Q 2359 409 2629 706 
Q 2900 1003 2900 1516 
L 2900 3500 
L 3475 3500 
L 3475 0 
L 2900 0 
L 2900 538 
Q 2691 219 2414 64 
Q 2138 -91 1772 -91 
Q 1169 -91 856 284 
Q 544 659 544 1381 
z
M 1991 3584 
L 1991 3584 
z
" transform="scale(0.015625)"/>
      </defs>
      <use xlink:href="#DejaVuSans-56"/>
      <use xlink:href="#DejaVuSans-61" x="60.658203"/>
      <use xlink:href="#DejaVuSans-6c" x="121.9375"/>
      <use xlink:href="#DejaVuSans-75" x="149.720703"/>
      <use xlink:href="#DejaVuSans-65" x="213.099609"/>
     </g>
    </g>
   </g>
   <g id="patch_3">
    <path d="M 52.160938 224.64 
L 52.160938 7.2 
" style="fill: none; stroke: #000000; stroke-width: 0.8; stroke-linejoin: miter; stroke-linecap: square"/>
   </g>
   <g id="patch_4">
    <path d="M 498.560937 224.64 
L 498.560937 7.2 
" style="fill: none; stroke: #000000; stroke-width: 0.8; stroke-linejoin: miter; stroke-linecap: square"/>
   </g>
   <g id="patch_5">
    <path d="M 52.160938 224.64 
L 498.560937 224.64 
" style="fill: none; stroke: #000000; stroke-width: 0.8; stroke-linejoin: miter; stroke-linecap: square"/>
   </g>
   <g id="patch_6">
    <path d="M 52.160938 7.2 
L 498.560937 7.2 
" style="fill: none; stroke: #000000; stroke-width: 0.8; stroke-linejoin: miter; stroke-linecap: square"/>
   </g>
   <g id="legend_1">
    <g id="patch_7">
     <path d="M 59.160938 219.64 
L 172.951563 219.64 
Q 174.951563 219.64 174.951563 217.64 
L 174.951563 189.28375 
Q 174.951563 187.28375 172.951563 187.28375 
L 59.160938 187.28375 
Q 57.160938 187.28375 57.160938 189.28375 
L 57.160938 217.64 
Q 57.160938 219.64 59.160938 219.64 
z
" style="fill: #ffffff; opacity: 0.8; stroke: #cccccc; stroke-linejoin: miter"/>
    </g>
    <g id="line2d_16">
     <path d="M 61.160938 195.382187 
L 71.160938 195.382187 
L 81.160938 195.382187 
" style="fill: none; stroke: #1f77b4; stroke-width: 1.5; stroke-linecap: square"/>
    </g>
    <g id="text_16">
     <!-- original -->
     <g transform="translate(89.160938 198.882187) scale(0.1 -0.1)">
      <defs>
       <path id="DejaVuSans-6f" d="M 1959 3097 
Q 1497 3097 1228 2736 
Q 959 2375 959 1747 
Q 959 1119 1226 758 
Q 1494 397 1959 397 
Q 2419 397 2687 759 
Q 2956 1122 2956 1747 
Q 2956 2369 2687 2733 
Q 2419 3097 1959 3097 
z
M 1959 3584 
Q 2709 3584 3137 3096 
Q 3566 2609 3566 1747 
Q 3566 888 3137 398 
Q 2709 -91 1959 -91 
Q 1206 -91 779 398 
Q 353 888 353 1747 
Q 353 2609 779 3096 
Q 1206 3584 1959 3584 
z
" transform="scale(0.015625)"/>
       <path id="DejaVuSans-72" d="M 2631 2963 
Q 2534 3019 2420 3045 
Q 2306 3072 2169 3072 
Q 1681 3072 1420 2755 
Q 1159 2438 1159 1844 
L 1159 0 
L 581 0 
L 581 3500 
L 1159 3500 
L 1159 2956 
Q 1341 3275 1631 3429 
Q 1922 3584 2338 3584 
Q 2397 3584 2469 3576 
Q 2541 3569 2628 3553 
L 2631 2963 
z
" transform="scale(0.015625)"/>
       <path id="DejaVuSans-67" d="M 2906 1791 
Q 2906 2416 2648 2759 
Q 2391 3103 1925 3103 
Q 1463 3103 1205 2759 
Q 947 2416 947 1791 
Q 947 1169 1205 825 
Q 1463 481 1925 481 
Q 2391 481 2648 825 
Q 2906 1169 2906 1791 
z
M 3481 434 
Q 3481 -459 3084 -895 
Q 2688 -1331 1869 -1331 
Q 1566 -1331 1297 -1286 
Q 1028 -1241 775 -1147 
L 775 -588 
Q 1028 -725 1275 -790 
Q 1522 -856 1778 -856 
Q 2344 -856 2625 -561 
Q 2906 -266 2906 331 
L 2906 616 
Q 2728 306 2450 153 
Q 2172 0 1784 0 
Q 1141 0 747 490 
Q 353 981 353 1791 
Q 353 2603 747 3093 
Q 1141 3584 1784 3584 
Q 2172 3584 2450 3431 
Q 2728 3278 2906 2969 
L 2906 3500 
L 3481 3500 
L 3481 434 
z
" transform="scale(0.015625)"/>
       <path id="DejaVuSans-6e" d="M 3513 2113 
L 3513 0 
L 2938 0 
L 2938 2094 
Q 2938 2591 2744 2837 
Q 2550 3084 2163 3084 
Q 1697 3084 1428 2787 
Q 1159 2491 1159 1978 
L 1159 0 
L 581 0 
L 581 3500 
L 1159 3500 
L 1159 2956 
Q 1366 3272 1645 3428 
Q 1925 3584 2291 3584 
Q 2894 3584 3203 3211 
Q 3513 2838 3513 2113 
z
" transform="scale(0.015625)"/>
      </defs>
      <use xlink:href="#DejaVuSans-6f"/>
      <use xlink:href="#DejaVuSans-72" x="61.181641"/>
      <use xlink:href="#DejaVuSans-69" x="102.294922"/>
      <use xlink:href="#DejaVuSans-67" x="130.078125"/>
      <use xlink:href="#DejaVuSans-69" x="193.554688"/>
      <use xlink:href="#DejaVuSans-6e" x="221.337891"/>
      <use xlink:href="#DejaVuSans-61" x="284.716797"/>
      <use xlink:href="#DejaVuSans-6c" x="345.996094"/>
     </g>
    </g>
    <g id="line2d_17">
     <path d="M 61.160938 210.060312 
L 71.160938 210.060312 
L 81.160938 210.060312 
" style="fill: none; stroke: #ff0000; stroke-width: 1.5; stroke-linecap: square"/>
    </g>
    <g id="text_17">
     <!-- moving-average -->
     <g transform="translate(89.160938 213.560312) scale(0.1 -0.1)">
      <defs>
       <path id="DejaVuSans-76" d="M 191 3500 
L 800 3500 
L 1894 563 
L 2988 3500 
L 3597 3500 
L 2284 0 
L 1503 0 
L 191 3500 
z
" transform="scale(0.015625)"/>
       <path id="DejaVuSans-2d" d="M 313 2009 
L 1997 2009 
L 1997 1497 
L 313 1497 
L 313 2009 
z
" transform="scale(0.015625)"/>
      </defs>
      <use xlink:href="#DejaVuSans-6d"/>
      <use xlink:href="#DejaVuSans-6f" x="97.412109"/>
      <use xlink:href="#DejaVuSans-76" x="158.59375"/>
      <use xlink:href="#DejaVuSans-69" x="217.773438"/>
      <use xlink:href="#DejaVuSans-6e" x="245.556641"/>
      <use xlink:href="#DejaVuSans-67" x="308.935547"/>
      <use xlink:href="#DejaVuSans-2d" x="372.412109"/>
      <use xlink:href="#DejaVuSans-61" x="408.496094"/>
      <use xlink:href="#DejaVuSans-76" x="469.775391"/>
      <use xlink:href="#DejaVuSans-65" x="528.955078"/>
      <use xlink:href="#DejaVuSans-72" x="590.478516"/>
      <use xlink:href="#DejaVuSans-61" x="631.591797"/>
      <use xlink:href="#DejaVuSans-67" x="692.871094"/>
      <use xlink:href="#DejaVuSans-65" x="756.347656"/>
     </g>
    </g>
   </g>
  </g>
 </g>
 <defs>
  <clipPath id="p70409b9d4e">
   <rect x="52.160938" y="7.2" width="446.4" height="217.44"/>
  </clipPath>
 </defs>
</svg>
